<svg xmlns="http://www.w3.org/2000/svg" width="300" height="450" viewBox="0 0 300 450" role="img" aria-label="Sin portada">
  <rect width="300" height="450" fill="#f1f5f9"/>
  <rect x="24" y="24" width="252" height="402" rx="12" fill="#e2e8f0"/>
  <path d="M92 120h116a8 8 0 0 1 8 8v194a8 8 0 0 1-8 8H92a8 8 0 0 1-8-8V128a8 8 0 0 1 8-8z" fill="#cbd5e1"/>
  <path d="M112 152h76v10h-76zm0 22h76v10h-76zm0 22h48v10h-48z" fill="#94a3b8"/>
  <text x="150" y="368" text-anchor="middle" font-family="Arial, sans-serif" font-size="16" fill="#475569">Sin portada</text>
</svg>
